<mxfile host="Electron" agent="Mozilla/5.0 (Windows NT 10.0; Win64; x64) AppleWebKit/537.36 (KHTML, like Gecko) draw.io/28.0.6 Chrome/138.0.7204.100 Electron/37.2.3 Safari/537.36" version="28.0.6">
  <diagram name="ページ1" id="G33vKs71Dj0e6AIBms0d">
    <mxGraphModel dx="2549" dy="2210" grid="1" gridSize="10" guides="1" tooltips="1" connect="1" arrows="1" fold="1" page="1" pageScale="1" pageWidth="827" pageHeight="1169" math="0" shadow="0">
      <root>
        <mxCell id="0" />
        <mxCell id="1" parent="0" />
        <mxCell id="-76vts-E34kOYvPz4IVs-57" value="" style="rounded=0;whiteSpace=wrap;html=1;fillColor=none;" vertex="1" parent="1">
          <mxGeometry x="-470" y="201" width="120" height="97" as="geometry" />
        </mxCell>
        <mxCell id="-76vts-E34kOYvPz4IVs-52" value="" style="rounded=0;whiteSpace=wrap;html=1;fillColor=none;" vertex="1" parent="1">
          <mxGeometry x="-330" y="201.25" width="120" height="97" as="geometry" />
        </mxCell>
        <mxCell id="-76vts-E34kOYvPz4IVs-48" value="" style="rounded=0;whiteSpace=wrap;html=1;fillColor=none;" vertex="1" parent="1">
          <mxGeometry x="-70" y="203" width="120" height="96" as="geometry" />
        </mxCell>
        <mxCell id="-76vts-E34kOYvPz4IVs-25" value="" style="rounded=0;whiteSpace=wrap;html=1;fillColor=none;" vertex="1" parent="1">
          <mxGeometry x="454" y="70" width="120" height="101" as="geometry" />
        </mxCell>
        <mxCell id="-76vts-E34kOYvPz4IVs-28" value="" style="rounded=0;whiteSpace=wrap;html=1;fillColor=none;" vertex="1" parent="1">
          <mxGeometry x="390" y="580" width="120" height="210" as="geometry" />
        </mxCell>
        <mxCell id="-76vts-E34kOYvPz4IVs-29" value="" style="rounded=0;whiteSpace=wrap;html=1;fillColor=none;" vertex="1" parent="1">
          <mxGeometry x="530" y="580" width="100" height="97" as="geometry" />
        </mxCell>
        <mxCell id="-76vts-E34kOYvPz4IVs-27" value="" style="rounded=0;whiteSpace=wrap;html=1;fillColor=none;" vertex="1" parent="1">
          <mxGeometry x="520" y="381" width="120" height="132" as="geometry" />
        </mxCell>
        <mxCell id="-76vts-E34kOYvPz4IVs-26" value="" style="rounded=0;whiteSpace=wrap;html=1;fillColor=none;" vertex="1" parent="1">
          <mxGeometry x="190" y="201" width="120" height="97" as="geometry" />
        </mxCell>
        <mxCell id="-76vts-E34kOYvPz4IVs-3" value="&lt;font style=&quot;font-size: 20px;&quot;&gt;Terraform&lt;/font&gt;&lt;div&gt;&lt;font style=&quot;font-size: 20px;&quot;&gt;Main.tf&lt;/font&gt;&lt;/div&gt;" style="rounded=0;whiteSpace=wrap;html=1;" vertex="1" parent="1">
          <mxGeometry x="-30" y="-50" width="120" height="60" as="geometry" />
        </mxCell>
        <mxCell id="-76vts-E34kOYvPz4IVs-4" value="" style="sketch=0;points=[[0,0,0],[0.25,0,0],[0.5,0,0],[0.75,0,0],[1,0,0],[0,1,0],[0.25,1,0],[0.5,1,0],[0.75,1,0],[1,1,0],[0,0.25,0],[0,0.5,0],[0,0.75,0],[1,0.25,0],[1,0.5,0],[1,0.75,0]];outlineConnect=0;fontColor=#232F3E;fillColor=#8C4FFF;strokeColor=#ffffff;dashed=0;verticalLabelPosition=bottom;verticalAlign=top;align=center;html=1;fontSize=12;fontStyle=0;aspect=fixed;shape=mxgraph.aws4.resourceIcon;resIcon=mxgraph.aws4.vpc;" vertex="1" parent="1">
          <mxGeometry x="464" y="95" width="50" height="50" as="geometry" />
        </mxCell>
        <mxCell id="-76vts-E34kOYvPz4IVs-6" value="" style="sketch=0;points=[[0,0,0],[0.25,0,0],[0.5,0,0],[0.75,0,0],[1,0,0],[0,1,0],[0.25,1,0],[0.5,1,0],[0.75,1,0],[1,1,0],[0,0.25,0],[0,0.5,0],[0,0.75,0],[1,0.25,0],[1,0.5,0],[1,0.75,0]];outlineConnect=0;fontColor=#232F3E;fillColor=#ED7100;strokeColor=#ffffff;dashed=0;verticalLabelPosition=bottom;verticalAlign=top;align=center;html=1;fontSize=12;fontStyle=0;aspect=fixed;shape=mxgraph.aws4.resourceIcon;resIcon=mxgraph.aws4.lambda;" vertex="1" parent="1">
          <mxGeometry x="430" y="590" width="40" height="40" as="geometry" />
        </mxCell>
        <mxCell id="-76vts-E34kOYvPz4IVs-7" value="" style="sketch=0;points=[[0,0,0],[0.25,0,0],[0.5,0,0],[0.75,0,0],[1,0,0],[0,1,0],[0.25,1,0],[0.5,1,0],[0.75,1,0],[1,1,0],[0,0.25,0],[0,0.5,0],[0,0.75,0],[1,0.25,0],[1,0.5,0],[1,0.75,0]];outlineConnect=0;fontColor=#232F3E;fillColor=#7AA116;strokeColor=#ffffff;dashed=0;verticalLabelPosition=bottom;verticalAlign=top;align=center;html=1;fontSize=12;fontStyle=0;aspect=fixed;shape=mxgraph.aws4.resourceIcon;resIcon=mxgraph.aws4.iot_core;" vertex="1" parent="1">
          <mxGeometry x="603.04" y="212.5" width="78" height="78" as="geometry" />
        </mxCell>
        <mxCell id="-76vts-E34kOYvPz4IVs-8" value="" style="sketch=0;outlineConnect=0;fontColor=#232F3E;gradientColor=none;fillColor=#7AA116;strokeColor=none;dashed=0;verticalLabelPosition=bottom;verticalAlign=top;align=center;html=1;fontSize=12;fontStyle=0;aspect=fixed;pointerEvents=1;shape=mxgraph.aws4.rule;" vertex="1" parent="1">
          <mxGeometry x="430" y="393" width="46" height="78" as="geometry" />
        </mxCell>
        <mxCell id="-76vts-E34kOYvPz4IVs-9" value="" style="sketch=0;points=[[0,0,0],[0.25,0,0],[0.5,0,0],[0.75,0,0],[1,0,0],[0,1,0],[0.25,1,0],[0.5,1,0],[0.75,1,0],[1,1,0],[0,0.25,0],[0,0.5,0],[0,0.75,0],[1,0.25,0],[1,0.5,0],[1,0.75,0]];outlineConnect=0;fontColor=#232F3E;fillColor=#E7157B;strokeColor=#ffffff;dashed=0;verticalLabelPosition=bottom;verticalAlign=top;align=center;html=1;fontSize=12;fontStyle=0;aspect=fixed;shape=mxgraph.aws4.resourceIcon;resIcon=mxgraph.aws4.sqs;" vertex="1" parent="1">
          <mxGeometry x="411" y="697" width="78" height="78" as="geometry" />
        </mxCell>
        <mxCell id="-76vts-E34kOYvPz4IVs-10" value="" style="sketch=0;outlineConnect=0;fontColor=#232F3E;gradientColor=none;fillColor=#E7157B;strokeColor=none;dashed=0;verticalLabelPosition=bottom;verticalAlign=top;align=center;html=1;fontSize=12;fontStyle=0;aspect=fixed;pointerEvents=1;shape=mxgraph.aws4.cloudwatch_logs;" vertex="1" parent="1">
          <mxGeometry x="551.97" y="605.5" width="61.86" height="46" as="geometry" />
        </mxCell>
        <mxCell id="-76vts-E34kOYvPz4IVs-11" value="" style="sketch=0;outlineConnect=0;fontColor=#232F3E;gradientColor=none;fillColor=#7AA116;strokeColor=none;dashed=0;verticalLabelPosition=bottom;verticalAlign=top;align=center;html=1;fontSize=12;fontStyle=0;aspect=fixed;pointerEvents=1;shape=mxgraph.aws4.rule;" vertex="1" parent="1">
          <mxGeometry x="551.97" y="393" width="46" height="78" as="geometry" />
        </mxCell>
        <mxCell id="-76vts-E34kOYvPz4IVs-12" value="" style="sketch=0;outlineConnect=0;fontColor=#232F3E;gradientColor=none;fillColor=#E7157B;strokeColor=none;dashed=0;verticalLabelPosition=bottom;verticalAlign=top;align=center;html=1;fontSize=12;fontStyle=0;aspect=fixed;pointerEvents=1;shape=mxgraph.aws4.cloudwatch_logs;" vertex="1" parent="1">
          <mxGeometry x="454" y="630" width="40.34" height="30" as="geometry" />
        </mxCell>
        <mxCell id="-76vts-E34kOYvPz4IVs-14" value="" style="sketch=0;outlineConnect=0;fontColor=#232F3E;gradientColor=none;fillColor=#DD344C;strokeColor=none;dashed=0;verticalLabelPosition=bottom;verticalAlign=top;align=center;html=1;fontSize=12;fontStyle=0;aspect=fixed;pointerEvents=1;shape=mxgraph.aws4.role;" vertex="1" parent="1">
          <mxGeometry x="400" y="634" width="46.09" height="26" as="geometry" />
        </mxCell>
        <mxCell id="-76vts-E34kOYvPz4IVs-15" value="" style="sketch=0;outlineConnect=0;fontColor=#232F3E;gradientColor=none;fillColor=#DD344C;strokeColor=none;dashed=0;verticalLabelPosition=bottom;verticalAlign=top;align=center;html=1;fontSize=12;fontStyle=0;aspect=fixed;pointerEvents=1;shape=mxgraph.aws4.role;" vertex="1" parent="1">
          <mxGeometry x="555.77" y="473" width="46.09" height="26" as="geometry" />
        </mxCell>
        <mxCell id="-76vts-E34kOYvPz4IVs-16" value="" style="sketch=0;outlineConnect=0;fontColor=#232F3E;gradientColor=none;fillColor=#DD344C;strokeColor=none;dashed=0;verticalLabelPosition=bottom;verticalAlign=top;align=center;html=1;fontSize=12;fontStyle=0;aspect=fixed;pointerEvents=1;shape=mxgraph.aws4.role;" vertex="1" parent="1">
          <mxGeometry x="426.95" y="473" width="46.09" height="26" as="geometry" />
        </mxCell>
        <mxCell id="-76vts-E34kOYvPz4IVs-19" value="Security group" style="fillColor=none;strokeColor=#DD3522;verticalAlign=top;fontStyle=0;fontColor=#DD3522;whiteSpace=wrap;html=1;" vertex="1" parent="1">
          <mxGeometry x="70" y="237" width="100" height="28" as="geometry" />
        </mxCell>
        <mxCell id="-76vts-E34kOYvPz4IVs-21" value="" style="sketch=0;points=[[0,0,0],[0.25,0,0],[0.5,0,0],[0.75,0,0],[1,0,0],[0,1,0],[0.25,1,0],[0.5,1,0],[0.75,1,0],[1,1,0],[0,0.25,0],[0,0.5,0],[0,0.75,0],[1,0.25,0],[1,0.5,0],[1,0.75,0]];outlineConnect=0;fontColor=#232F3E;fillColor=#7AA116;strokeColor=#ffffff;dashed=0;verticalLabelPosition=bottom;verticalAlign=top;align=center;html=1;fontSize=12;fontStyle=0;aspect=fixed;shape=mxgraph.aws4.resourceIcon;resIcon=mxgraph.aws4.s3;" vertex="1" parent="1">
          <mxGeometry x="514" y="95" width="50" height="50" as="geometry" />
        </mxCell>
        <mxCell id="-76vts-E34kOYvPz4IVs-22" value="" style="sketch=0;outlineConnect=0;fontColor=#232F3E;gradientColor=none;fillColor=#8C4FFF;strokeColor=none;dashed=0;verticalLabelPosition=bottom;verticalAlign=top;align=center;html=1;fontSize=12;fontStyle=0;aspect=fixed;pointerEvents=1;shape=mxgraph.aws4.endpoints;" vertex="1" parent="1">
          <mxGeometry x="220" y="218" width="60" height="60" as="geometry" />
        </mxCell>
        <mxCell id="-76vts-E34kOYvPz4IVs-23" value="" style="rounded=0;whiteSpace=wrap;html=1;fillColor=none;" vertex="1" parent="1">
          <mxGeometry x="390" y="381" width="120" height="132" as="geometry" />
        </mxCell>
        <mxCell id="-76vts-E34kOYvPz4IVs-24" value="" style="rounded=0;whiteSpace=wrap;html=1;fillColor=none;" vertex="1" parent="1">
          <mxGeometry x="584" y="201" width="120" height="101" as="geometry" />
        </mxCell>
        <mxCell id="-76vts-E34kOYvPz4IVs-30" value="" style="rounded=0;whiteSpace=wrap;html=1;fillColor=none;" vertex="1" parent="1">
          <mxGeometry x="320" y="201" width="120" height="97" as="geometry" />
        </mxCell>
        <mxCell id="-76vts-E34kOYvPz4IVs-31" value="subnet" style="points=[[0,0],[0.25,0],[0.5,0],[0.75,0],[1,0],[1,0.25],[1,0.5],[1,0.75],[1,1],[0.75,1],[0.5,1],[0.25,1],[0,1],[0,0.75],[0,0.5],[0,0.25]];outlineConnect=0;gradientColor=none;html=1;whiteSpace=wrap;fontSize=12;fontStyle=0;container=1;pointerEvents=0;collapsible=0;recursiveResize=0;shape=mxgraph.aws4.group;grIcon=mxgraph.aws4.group_security_group;grStroke=0;strokeColor=#00A4A6;fillColor=#E6F6F7;verticalAlign=top;align=left;spacingLeft=30;fontColor=#147EBA;dashed=0;" vertex="1" parent="1">
          <mxGeometry x="330" y="205" width="100" height="40" as="geometry" />
        </mxCell>
        <mxCell id="-76vts-E34kOYvPz4IVs-32" value="" style="rounded=0;whiteSpace=wrap;html=1;fillColor=none;" vertex="1" parent="1">
          <mxGeometry x="60" y="202.5" width="120" height="97" as="geometry" />
        </mxCell>
        <mxCell id="-76vts-E34kOYvPz4IVs-39" value="" style="sketch=0;outlineConnect=0;fontColor=#232F3E;gradientColor=none;fillColor=#8C4FFF;strokeColor=none;dashed=0;verticalLabelPosition=bottom;verticalAlign=top;align=center;html=1;fontSize=12;fontStyle=0;aspect=fixed;pointerEvents=1;shape=mxgraph.aws4.route_table;" vertex="1" parent="1">
          <mxGeometry x="359.48" y="251" width="41.04" height="40" as="geometry" />
        </mxCell>
        <mxCell id="-76vts-E34kOYvPz4IVs-40" value="" style="endArrow=none;html=1;rounded=0;" edge="1" parent="1">
          <mxGeometry width="50" height="50" relative="1" as="geometry">
            <mxPoint x="-640" y="351" as="sourcePoint" />
            <mxPoint x="720" y="351" as="targetPoint" />
          </mxGeometry>
        </mxCell>
        <mxCell id="-76vts-E34kOYvPz4IVs-41" value="" style="endArrow=none;html=1;rounded=0;" edge="1" parent="1">
          <mxGeometry width="50" height="50" relative="1" as="geometry">
            <mxPoint x="-642" y="551" as="sourcePoint" />
            <mxPoint x="720" y="541" as="targetPoint" />
            <Array as="points">
              <mxPoint x="-470" y="551" />
            </Array>
          </mxGeometry>
        </mxCell>
        <mxCell id="-76vts-E34kOYvPz4IVs-43" value="" style="endArrow=none;html=1;rounded=0;" edge="1" parent="1">
          <mxGeometry width="50" height="50" relative="1" as="geometry">
            <mxPoint x="-640" y="40" as="sourcePoint" />
            <mxPoint x="720" y="40" as="targetPoint" />
          </mxGeometry>
        </mxCell>
        <mxCell id="-76vts-E34kOYvPz4IVs-44" value="&lt;font style=&quot;font-size: 16px;&quot;&gt;1階層目&lt;/font&gt;" style="text;html=1;align=center;verticalAlign=middle;whiteSpace=wrap;rounded=0;" vertex="1" parent="1">
          <mxGeometry x="-680" y="40" width="150" height="30" as="geometry" />
        </mxCell>
        <mxCell id="-76vts-E34kOYvPz4IVs-45" value="&lt;span style=&quot;font-size: 16px;&quot;&gt;2階層目&lt;/span&gt;" style="text;html=1;align=center;verticalAlign=middle;whiteSpace=wrap;rounded=0;" vertex="1" parent="1">
          <mxGeometry x="-680" y="351" width="150" height="30" as="geometry" />
        </mxCell>
        <mxCell id="-76vts-E34kOYvPz4IVs-46" value="&lt;font style=&quot;font-size: 16px;&quot;&gt;3階層目&lt;/font&gt;" style="text;html=1;align=center;verticalAlign=middle;whiteSpace=wrap;rounded=0;" vertex="1" parent="1">
          <mxGeometry x="-680" y="550" width="150" height="30" as="geometry" />
        </mxCell>
        <mxCell id="-76vts-E34kOYvPz4IVs-49" value="" style="sketch=0;points=[[0,0,0],[0.25,0,0],[0.5,0,0],[0.75,0,0],[1,0,0],[0,1,0],[0.25,1,0],[0.5,1,0],[0.75,1,0],[1,1,0],[0,0.25,0],[0,0.5,0],[0,0.75,0],[1,0.25,0],[1,0.5,0],[1,0.75,0]];outlineConnect=0;fontColor=#232F3E;fillColor=#ED7100;strokeColor=#ffffff;dashed=0;verticalLabelPosition=bottom;verticalAlign=top;align=center;html=1;fontSize=12;fontStyle=0;aspect=fixed;shape=mxgraph.aws4.resourceIcon;resIcon=mxgraph.aws4.ecs;" vertex="1" parent="1">
          <mxGeometry x="-49" y="212.5" width="78" height="78" as="geometry" />
        </mxCell>
        <mxCell id="-76vts-E34kOYvPz4IVs-50" value="" style="sketch=0;outlineConnect=0;fontColor=#232F3E;gradientColor=none;fillColor=#ED7100;strokeColor=none;dashed=0;verticalLabelPosition=bottom;verticalAlign=top;align=center;html=1;fontSize=12;fontStyle=0;aspect=fixed;pointerEvents=1;shape=mxgraph.aws4.ecs_service;" vertex="1" parent="1">
          <mxGeometry x="-320" y="208" width="39" height="48" as="geometry" />
        </mxCell>
        <mxCell id="-76vts-E34kOYvPz4IVs-51" value="" style="sketch=0;outlineConnect=0;fontColor=#232F3E;gradientColor=none;fillColor=#ED7100;strokeColor=none;dashed=0;verticalLabelPosition=bottom;verticalAlign=top;align=center;html=1;fontSize=12;fontStyle=0;aspect=fixed;pointerEvents=1;shape=mxgraph.aws4.ecs_task;" vertex="1" parent="1">
          <mxGeometry x="-264" y="208" width="37" height="48" as="geometry" />
        </mxCell>
        <mxCell id="-76vts-E34kOYvPz4IVs-53" value="" style="rounded=0;whiteSpace=wrap;html=1;fillColor=none;" vertex="1" parent="1">
          <mxGeometry x="-200" y="203" width="120" height="97" as="geometry" />
        </mxCell>
        <mxCell id="-76vts-E34kOYvPz4IVs-54" value="" style="sketch=0;outlineConnect=0;fontColor=#232F3E;gradientColor=none;fillColor=#ED7100;strokeColor=none;dashed=0;verticalLabelPosition=bottom;verticalAlign=top;align=center;html=1;fontSize=12;fontStyle=0;aspect=fixed;pointerEvents=1;shape=mxgraph.aws4.ecs_service;" vertex="1" parent="1">
          <mxGeometry x="-190" y="205" width="39" height="48" as="geometry" />
        </mxCell>
        <mxCell id="-76vts-E34kOYvPz4IVs-55" value="" style="sketch=0;outlineConnect=0;fontColor=#232F3E;gradientColor=none;fillColor=#ED7100;strokeColor=none;dashed=0;verticalLabelPosition=bottom;verticalAlign=top;align=center;html=1;fontSize=12;fontStyle=0;aspect=fixed;pointerEvents=1;shape=mxgraph.aws4.ecs_task;" vertex="1" parent="1">
          <mxGeometry x="-148.5" y="205" width="37" height="48" as="geometry" />
        </mxCell>
        <mxCell id="-76vts-E34kOYvPz4IVs-56" value="" style="sketch=0;outlineConnect=0;fontColor=#232F3E;gradientColor=none;fillColor=#8C4FFF;strokeColor=none;dashed=0;verticalLabelPosition=bottom;verticalAlign=top;align=center;html=1;fontSize=12;fontStyle=0;aspect=fixed;pointerEvents=1;shape=mxgraph.aws4.application_load_balancer;" vertex="1" parent="1">
          <mxGeometry x="-470" y="202" width="60" height="60" as="geometry" />
        </mxCell>
        <mxCell id="-76vts-E34kOYvPz4IVs-60" value="" style="sketch=0;points=[[0,0,0],[0.25,0,0],[0.5,0,0],[0.75,0,0],[1,0,0],[0,1,0],[0.25,1,0],[0.5,1,0],[0.75,1,0],[1,1,0],[0,0.25,0],[0,0.5,0],[0,0.75,0],[1,0.25,0],[1,0.5,0],[1,0.75,0]];outlineConnect=0;fontColor=#232F3E;fillColor=#7AA116;strokeColor=#ffffff;dashed=0;verticalLabelPosition=bottom;verticalAlign=top;align=center;html=1;fontSize=12;fontStyle=0;aspect=fixed;shape=mxgraph.aws4.resourceIcon;resIcon=mxgraph.aws4.s3;" vertex="1" parent="1">
          <mxGeometry x="-413" y="237" width="50" height="50" as="geometry" />
        </mxCell>
        <mxCell id="-76vts-E34kOYvPz4IVs-61" value="" style="sketch=0;outlineConnect=0;fontColor=#232F3E;gradientColor=none;fillColor=#E7157B;strokeColor=none;dashed=0;verticalLabelPosition=bottom;verticalAlign=top;align=center;html=1;fontSize=12;fontStyle=0;aspect=fixed;pointerEvents=1;shape=mxgraph.aws4.cloudwatch_logs;" vertex="1" parent="1">
          <mxGeometry x="-266" y="259.5" width="40.34" height="30" as="geometry" />
        </mxCell>
        <mxCell id="-76vts-E34kOYvPz4IVs-62" value="" style="sketch=0;outlineConnect=0;fontColor=#232F3E;gradientColor=none;fillColor=#DD344C;strokeColor=none;dashed=0;verticalLabelPosition=bottom;verticalAlign=top;align=center;html=1;fontSize=12;fontStyle=0;aspect=fixed;pointerEvents=1;shape=mxgraph.aws4.role;" vertex="1" parent="1">
          <mxGeometry x="-320" y="263.5" width="46.09" height="26" as="geometry" />
        </mxCell>
        <mxCell id="-76vts-E34kOYvPz4IVs-63" value="" style="sketch=0;outlineConnect=0;fontColor=#232F3E;gradientColor=none;fillColor=#E7157B;strokeColor=none;dashed=0;verticalLabelPosition=bottom;verticalAlign=top;align=center;html=1;fontSize=12;fontStyle=0;aspect=fixed;pointerEvents=1;shape=mxgraph.aws4.cloudwatch_logs;" vertex="1" parent="1">
          <mxGeometry x="-134.67000000000002" y="259.5" width="40.34" height="30" as="geometry" />
        </mxCell>
        <mxCell id="-76vts-E34kOYvPz4IVs-64" value="" style="sketch=0;outlineConnect=0;fontColor=#232F3E;gradientColor=none;fillColor=#DD344C;strokeColor=none;dashed=0;verticalLabelPosition=bottom;verticalAlign=top;align=center;html=1;fontSize=12;fontStyle=0;aspect=fixed;pointerEvents=1;shape=mxgraph.aws4.role;" vertex="1" parent="1">
          <mxGeometry x="-188.67000000000002" y="263.5" width="46.09" height="26" as="geometry" />
        </mxCell>
        <mxCell id="-76vts-E34kOYvPz4IVs-65" value="" style="sketch=0;points=[[0,0,0],[0.25,0,0],[0.5,0,0],[0.75,0,0],[1,0,0],[0,1,0],[0.25,1,0],[0.5,1,0],[0.75,1,0],[1,1,0],[0,0.25,0],[0,0.5,0],[0,0.75,0],[1,0.25,0],[1,0.5,0],[1,0.75,0]];outlineConnect=0;fontColor=#232F3E;fillColor=#ED7100;strokeColor=#ffffff;dashed=0;verticalLabelPosition=bottom;verticalAlign=top;align=center;html=1;fontSize=12;fontStyle=0;aspect=fixed;shape=mxgraph.aws4.resourceIcon;resIcon=mxgraph.aws4.ecr;" vertex="1" parent="1">
          <mxGeometry x="-580" y="208" width="78" height="78" as="geometry" />
        </mxCell>
        <mxCell id="-76vts-E34kOYvPz4IVs-66" value="" style="rounded=0;whiteSpace=wrap;html=1;fillColor=none;" vertex="1" parent="1">
          <mxGeometry x="-609" y="200" width="120" height="97" as="geometry" />
        </mxCell>
        <mxCell id="-76vts-E34kOYvPz4IVs-70" value="" style="edgeStyle=elbowEdgeStyle;elbow=vertical;endArrow=classic;html=1;curved=0;rounded=0;endSize=8;startSize=8;exitX=0.5;exitY=1;exitDx=0;exitDy=0;entryX=0.418;entryY=-0.013;entryDx=0;entryDy=0;entryPerimeter=0;" edge="1" parent="1" source="-76vts-E34kOYvPz4IVs-24" target="-76vts-E34kOYvPz4IVs-27">
          <mxGeometry width="50" height="50" relative="1" as="geometry">
            <mxPoint x="-10" y="521" as="sourcePoint" />
            <mxPoint x="40" y="471" as="targetPoint" />
            <Array as="points">
              <mxPoint x="610" y="371" />
            </Array>
          </mxGeometry>
        </mxCell>
        <mxCell id="-76vts-E34kOYvPz4IVs-71" value="" style="edgeStyle=elbowEdgeStyle;elbow=vertical;endArrow=classic;html=1;curved=0;rounded=0;endSize=8;startSize=8;exitX=0.5;exitY=1;exitDx=0;exitDy=0;entryX=0.5;entryY=0;entryDx=0;entryDy=0;" edge="1" parent="1" source="-76vts-E34kOYvPz4IVs-24" target="-76vts-E34kOYvPz4IVs-23">
          <mxGeometry width="50" height="50" relative="1" as="geometry">
            <mxPoint x="674" y="361" as="sourcePoint" />
            <mxPoint x="600" y="438" as="targetPoint" />
            <Array as="points">
              <mxPoint x="550" y="361" />
            </Array>
          </mxGeometry>
        </mxCell>
        <mxCell id="-76vts-E34kOYvPz4IVs-73" value="" style="endArrow=classic;html=1;rounded=0;exitX=0.5;exitY=1;exitDx=0;exitDy=0;" edge="1" parent="1" source="-76vts-E34kOYvPz4IVs-27" target="-76vts-E34kOYvPz4IVs-29">
          <mxGeometry width="50" height="50" relative="1" as="geometry">
            <mxPoint x="592" y="515" as="sourcePoint" />
            <mxPoint x="731.04" y="585" as="targetPoint" />
          </mxGeometry>
        </mxCell>
        <mxCell id="-76vts-E34kOYvPz4IVs-74" value="" style="endArrow=classic;html=1;rounded=0;exitX=0.5;exitY=1;exitDx=0;exitDy=0;entryX=0.5;entryY=0;entryDx=0;entryDy=0;" edge="1" parent="1" source="-76vts-E34kOYvPz4IVs-23" target="-76vts-E34kOYvPz4IVs-28">
          <mxGeometry width="50" height="50" relative="1" as="geometry">
            <mxPoint x="550" y="561" as="sourcePoint" />
            <mxPoint x="559" y="626" as="targetPoint" />
          </mxGeometry>
        </mxCell>
        <mxCell id="-76vts-E34kOYvPz4IVs-80" value="" style="edgeStyle=elbowEdgeStyle;elbow=vertical;endArrow=classic;html=1;curved=0;rounded=0;endSize=8;startSize=8;exitX=0;exitY=0.5;exitDx=0;exitDy=0;entryX=0.5;entryY=0;entryDx=0;entryDy=0;" edge="1" parent="1" source="-76vts-E34kOYvPz4IVs-25" target="-76vts-E34kOYvPz4IVs-57">
          <mxGeometry width="50" height="50" relative="1" as="geometry">
            <mxPoint x="-10" y="410" as="sourcePoint" />
            <mxPoint x="40" y="360" as="targetPoint" />
            <Array as="points">
              <mxPoint x="-190" y="90" />
              <mxPoint x="20" y="90" />
            </Array>
          </mxGeometry>
        </mxCell>
        <mxCell id="-76vts-E34kOYvPz4IVs-82" value="" style="endArrow=classic;html=1;rounded=0;entryX=0.5;entryY=0;entryDx=0;entryDy=0;" edge="1" parent="1" target="-76vts-E34kOYvPz4IVs-52">
          <mxGeometry width="50" height="50" relative="1" as="geometry">
            <mxPoint x="-270" y="90" as="sourcePoint" />
            <mxPoint x="60" y="360" as="targetPoint" />
          </mxGeometry>
        </mxCell>
        <mxCell id="-76vts-E34kOYvPz4IVs-83" value="" style="endArrow=classic;html=1;rounded=0;entryX=0.5;entryY=0;entryDx=0;entryDy=0;" edge="1" parent="1">
          <mxGeometry width="50" height="50" relative="1" as="geometry">
            <mxPoint x="-142.57999999999998" y="90" as="sourcePoint" />
            <mxPoint x="-142.57999999999998" y="201" as="targetPoint" />
          </mxGeometry>
        </mxCell>
        <mxCell id="-76vts-E34kOYvPz4IVs-84" value="" style="endArrow=classic;html=1;rounded=0;entryX=0.5;entryY=0;entryDx=0;entryDy=0;" edge="1" parent="1">
          <mxGeometry width="50" height="50" relative="1" as="geometry">
            <mxPoint x="119.58000000000001" y="89" as="sourcePoint" />
            <mxPoint x="119.58000000000001" y="200" as="targetPoint" />
          </mxGeometry>
        </mxCell>
        <mxCell id="-76vts-E34kOYvPz4IVs-85" value="" style="endArrow=classic;html=1;rounded=0;entryX=0.5;entryY=0;entryDx=0;entryDy=0;" edge="1" parent="1">
          <mxGeometry width="50" height="50" relative="1" as="geometry">
            <mxPoint x="249.58" y="89" as="sourcePoint" />
            <mxPoint x="249.58" y="200" as="targetPoint" />
          </mxGeometry>
        </mxCell>
        <mxCell id="-76vts-E34kOYvPz4IVs-86" value="" style="endArrow=classic;html=1;rounded=0;entryX=0.5;entryY=0;entryDx=0;entryDy=0;" edge="1" parent="1">
          <mxGeometry width="50" height="50" relative="1" as="geometry">
            <mxPoint x="379.58" y="89" as="sourcePoint" />
            <mxPoint x="379.58" y="200" as="targetPoint" />
          </mxGeometry>
        </mxCell>
        <mxCell id="-76vts-E34kOYvPz4IVs-89" value="" style="edgeStyle=elbowEdgeStyle;elbow=vertical;endArrow=classic;html=1;curved=0;rounded=0;endSize=8;startSize=8;exitX=0.5;exitY=1;exitDx=0;exitDy=0;entryX=0.5;entryY=1;entryDx=0;entryDy=0;" edge="1" parent="1" source="-76vts-E34kOYvPz4IVs-48" target="-76vts-E34kOYvPz4IVs-52">
          <mxGeometry width="50" height="50" relative="1" as="geometry">
            <mxPoint x="114" y="407.5" as="sourcePoint" />
            <mxPoint x="-150" y="330" as="targetPoint" />
            <Array as="points">
              <mxPoint x="-80" y="330" />
              <mxPoint x="-320" y="376.5" />
            </Array>
          </mxGeometry>
        </mxCell>
        <mxCell id="-76vts-E34kOYvPz4IVs-90" value="" style="endArrow=classic;html=1;rounded=0;entryX=0.46;entryY=0.974;entryDx=0;entryDy=0;entryPerimeter=0;" edge="1" parent="1" target="-76vts-E34kOYvPz4IVs-53">
          <mxGeometry width="50" height="50" relative="1" as="geometry">
            <mxPoint x="-145" y="330" as="sourcePoint" />
            <mxPoint x="60" y="360" as="targetPoint" />
          </mxGeometry>
        </mxCell>
        <mxCell id="-76vts-E34kOYvPz4IVs-91" value="" style="edgeStyle=elbowEdgeStyle;elbow=vertical;endArrow=classic;html=1;curved=0;rounded=0;endSize=8;startSize=8;exitX=0.5;exitY=1;exitDx=0;exitDy=0;entryX=0.25;entryY=1;entryDx=0;entryDy=0;" edge="1" parent="1" target="-76vts-E34kOYvPz4IVs-52">
          <mxGeometry width="50" height="50" relative="1" as="geometry">
            <mxPoint x="-550" y="298" as="sourcePoint" />
            <mxPoint x="-810" y="297" as="targetPoint" />
            <Array as="points">
              <mxPoint x="-430" y="340" />
              <mxPoint x="-860" y="375.5" />
            </Array>
          </mxGeometry>
        </mxCell>
        <mxCell id="-76vts-E34kOYvPz4IVs-92" value="" style="edgeStyle=elbowEdgeStyle;elbow=vertical;endArrow=classic;html=1;curved=0;rounded=0;endSize=8;startSize=8;exitX=0.5;exitY=1;exitDx=0;exitDy=0;entryX=0.147;entryY=1;entryDx=0;entryDy=0;entryPerimeter=0;" edge="1" parent="1" target="-76vts-E34kOYvPz4IVs-53">
          <mxGeometry width="50" height="50" relative="1" as="geometry">
            <mxPoint x="-523.91" y="297" as="sourcePoint" />
            <mxPoint x="-273.90999999999997" y="297" as="targetPoint" />
            <Array as="points">
              <mxPoint x="-350" y="340" />
            </Array>
          </mxGeometry>
        </mxCell>
      </root>
    </mxGraphModel>
  </diagram>
</mxfile>
